<?xml version="1.0"?>
<svg xmlns="http://www.w3.org/2000/svg" xmlns:xlink="http://www.w3.org/1999/xlink" xmlns:svgjs="http://svgjs.com/svgjs" version="1.1" width="512" height="512" x="0" y="0" viewBox="0 0 64 64" style="enable-background:new 0 0 512 512" xml:space="preserve" class=""><g><path xmlns="http://www.w3.org/2000/svg" d="m60 32h-32a3 3 0 0 0 -3 3v3a3 3 0 0 0 3 3h15v2h-15a3 3 0 0 0 -3 3v3a3 3 0 0 0 3 3h15v2h-15a3 3 0 0 0 -3 3v3a3 3 0 0 0 3 3h32a3 3 0 0 0 3-3v-3a3 3 0 0 0 -3-3h-15v-2h15a3 3 0 0 0 3-3v-3a3 3 0 0 0 -3-3h-15v-2h15a3 3 0 0 0 3-3v-3a3 3 0 0 0 -3-3zm-25 5.5h-3a1 1 0 0 1 0-2h3a1 1 0 0 1 0 2zm0 11h-3a1 1 0 0 1 0-2h3a1 1 0 0 1 0 2zm0 11h-3a1 1 0 0 1 0-2h3a1 1 0 0 1 0 2zm21-2a1 1 0 0 1 0 2h-16a1 1 0 0 1 0-2zm0-11a1 1 0 0 1 0 2h-16a1 1 0 0 1 0-2zm0-9h-16a1 1 0 0 1 0-2h16a1 1 0 0 1 0 2z" fill="#eea16d" data-original="#c4a2fc" style="" class=""/><path xmlns="http://www.w3.org/2000/svg" d="m41 16a9.913 9.913 0 0 0 -2.2.245 12.824 12.824 0 0 0 .2-2.245 13 13 0 0 0 -25.963-.985c-.183-.01-.361-.015-.537-.015a11.5 11.5 0 0 0 0 23h6.5v8.586l-1.293-1.293a1 1 0 0 0 -1.414 1.414l3 3a1 1 0 0 0 1.416 0l3-3a1 1 0 0 0 -1.414-1.414l-1.295 1.293v-8.586h2a1 1 0 0 0 0-2h-10.5a9.5 9.5 0 1 1 1.364-18.89 1 1 0 0 0 1.142-.99l-.006-.12a11 11 0 1 1 21.441 3.445 1 1 0 0 0 1.352 1.229 8 8 0 1 1 3.207 15.326h-8v-8.586l1.293 1.293a1 1 0 0 0 1.414-1.414l-3-3a1 1 0 0 0 -1.414 0l-3 3a1 1 0 0 0 1.414 1.414l1.293-1.293v8.586h-2a1 1 0 0 0 0 2h12a10 10 0 0 0 0-20z" fill="#9c5221" data-original="#151a6a" style="" class=""/></g></svg>
