<?xml version="1.0"?>
<svg xmlns="http://www.w3.org/2000/svg" xmlns:xlink="http://www.w3.org/1999/xlink" xmlns:svgjs="http://svgjs.com/svgjs" version="1.1" width="512" height="512" x="0" y="0" viewBox="0 0 512 512" style="enable-background:new 0 0 512 512" xml:space="preserve" class=""><g><g xmlns="http://www.w3.org/2000/svg"><path d="m504.5 331.333h-63.5v-199.583c0-4.142-3.357-7.5-7.5-7.5h-142c-4.143 0-7.5 3.358-7.5 7.5v75.333h-269v-192.083h269v86.75c0 4.142 3.357 7.5 7.5 7.5s7.5-3.358 7.5-7.5v-94.25c0-4.142-3.357-7.5-7.5-7.5h-284c-4.142 0-7.5 3.358-7.5 7.5v497c0 4.142 3.358 7.5 7.5 7.5h497c4.143 0 7.5-3.358 7.5-7.5v-165.667c0-4.142-3.357-7.5-7.5-7.5zm-205.5 97.834h127v67.833h-127zm0-15v-150.667h127v150.667zm142-26.417h56v26.417h-56zm56-41.417v26.417h-56v-26.417zm-198-207.083h127v109.25h-127zm-15 82.833v109.25h-269v-109.25zm-269 124.25h269v150.667h-269zm426 150.667v-67.833h56v67.833z" fill="#eea16d" data-original="#000000" style="" class=""/></g></g></svg>
